<?xml version="1.0" standalone="no"?>
<svg viewBox="0 0 200 200" xmlns="http://www.w3.org/2000/svg">
  <path fill="#8A3FFC" d="M46.3,-79.1C60.4,-72.1,72.4,-60.4,80,-46.4C87.7,-32.5,91,-16.2,89.8,-0.7C88.7,14.9,83,29.8,74.6,42.5C66.3,55.2,55.2,65.8,42.3,74.6C29.4,83.4,14.7,90.6,-0.6,91.6C-15.9,92.6,-31.7,87.5,-45.3,79C-58.8,70.6,-70.1,58.8,-77.6,45.1C-85.1,31.3,-88.8,15.7,-88.3,0.3C-87.8,-15.1,-83,-30.1,-75.1,-43.2C-67.3,-56.3,-56.3,-67.4,-43.2,-75C-30.2,-82.6,-15.1,-86.8,0.5,-87.7C16.1,-88.6,32.3,-86.2,46.3,-79.1Z" transform="translate(100 100)" />
</svg>
